<svg width="25" height="24" viewBox="0 0 25 24" fill="none" xmlns="http://www.w3.org/2000/svg">
<path d="M10.3133 4.57156C9.24383 4.59384 8.17664 4.97261 7.31431 5.59919C6.24483 6.37582 5.52349 7.76765 5.44821 9.06355C5.41372 9.59233 5.47444 10.123 5.62752 10.6304C5.78173 11.1306 6.05504 11.5339 6.35069 11.9591C6.69608 12.457 7.03508 12.954 7.35447 13.4682C7.77559 14.1471 8.08448 14.8096 7.90882 15.6153C7.79092 16.1615 7.62511 16.6963 7.41331 17.2136C7.3143 17.4541 7.21895 17.7347 7.06702 17.9466C6.91508 18.1585 6.68193 18.3476 6.48163 18.5218C5.72059 19.1852 4.68625 19.7495 4.3112 20.7412C4.17432 21.1049 4.11639 21.4878 3.98772 21.8515C3.93753 21.9948 3.86178 23.0174 3.75137 23.0451L0 24L6.79828 0L10.2152 3.47482C10.5921 3.85813 11.339 4.63204 11.339 4.63204C11.0196 4.60612 10.6934 4.56929 10.3713 4.57247L10.3133 4.57156ZM15.0497 20.1637C14.6227 19.6976 14.1459 19.2502 13.7608 18.7496C13.4775 18.3804 13.0956 17.6187 13.5619 17.2227C13.6887 17.1149 13.8886 17.1718 14.0305 17.2127C14.6236 17.3841 15.4873 17.6479 15.9235 17.0386C16.064 16.8426 16.1329 16.6048 16.1794 16.3683C16.3104 15.7031 16.429 15.036 16.5545 14.3676C16.5883 14.1889 16.6229 14.0075 16.711 13.8484C16.9026 13.5042 17.3954 13.5755 17.5505 13.2277C17.5792 13.1608 17.5922 13.0883 17.5886 13.0157C17.5851 12.9431 17.565 12.8722 17.53 12.8085C17.295 12.3658 17.034 11.9374 16.7484 11.5253C16.6051 11.3175 16.4527 11.1097 16.3779 10.8692C16.2675 10.514 16.3373 10.1312 16.4076 9.76607L24.3114 17.8102L15.0908 20.1555C15.0781 20.1603 15.065 20.1637 15.0516 20.1655L15.0497 20.1637Z" fill="url(#paint0_linear_0_3)"/>
<path d="M16.9529 12.0123L12.8009 12.5393C12.6061 12.9363 12.2974 13.2668 11.9141 13.489C11.5308 13.7111 11.0899 13.8151 10.6473 13.7876C10.2047 13.76 9.78025 13.6023 9.42759 13.3344C9.07493 13.0665 8.80991 12.7003 8.66606 12.2823C8.52222 11.8642 8.506 11.4131 8.61946 10.9858C8.73291 10.5586 8.97095 10.1745 9.30347 9.88208C9.63598 9.58968 10.048 9.40211 10.4875 9.3431C10.927 9.28409 11.3742 9.35628 11.7725 9.55056C11.8382 9.58239 11.9025 9.61785 11.965 9.65604L16.4921 9.08132C16.8114 9.04085 17.1044 9.23455 17.1491 9.51328L17.4525 11.4335C17.494 11.7127 17.2713 11.9718 16.9529 12.0123Z" fill="url(#paint1_linear_0_3)"/>
<defs>
<linearGradient id="paint0_linear_0_3" x1="8.59067e-06" y1="-26.25" x2="42.0142" y2="-15.4069" gradientUnits="userSpaceOnUse">
<stop stop-color="#0AFFF0"/>
<stop offset="0.369792" stop-color="#80B2EC"/>
<stop offset="0.604167" stop-color="#C565D5"/>
<stop offset="1" stop-color="#F54FB3"/>
</linearGradient>
<linearGradient id="paint1_linear_0_3" x1="8.59067e-06" y1="-26.25" x2="42.0142" y2="-15.4069" gradientUnits="userSpaceOnUse">
<stop stop-color="#0AFFF0"/>
<stop offset="0.369792" stop-color="#80B2EC"/>
<stop offset="0.604167" stop-color="#C565D5"/>
<stop offset="1" stop-color="#F54FB3"/>
</linearGradient>
</defs>
</svg>
