<svg width="19" height="27" viewBox="0 0 19 27" fill="none" xmlns="http://www.w3.org/2000/svg">
<path d="M9.45 5.4C9.09196 5.4 8.74858 5.54223 8.49541 5.79541C8.24223 6.04858 8.1 6.39196 8.1 6.75V9.45C8.1 9.80804 8.24223 10.1514 8.49541 10.4046C8.74858 10.6578 9.09196 10.8 9.45 10.8C9.80804 10.8 10.1514 10.6578 10.4046 10.4046C10.6578 10.1514 10.8 9.80804 10.8 9.45V6.75C10.8 6.39196 10.6578 6.04858 10.4046 5.79541C10.1514 5.54223 9.80804 5.4 9.45 5.4ZM9.45 0C6.9437 0 4.54006 0.995622 2.76784 2.76784C0.995622 4.54006 0 6.9437 0 9.45V17.55C3.73467e-08 20.0563 0.995622 22.4599 2.76784 24.2322C4.54006 26.0044 6.9437 27 9.45 27C11.9563 27 14.3599 26.0044 16.1322 24.2322C17.9044 22.4599 18.9 20.0563 18.9 17.55V9.45C18.9 6.9437 17.9044 4.54006 16.1322 2.76784C14.3599 0.995622 11.9563 0 9.45 0ZM16.2 17.55C16.2 19.3402 15.4888 21.0571 14.223 22.323C12.9571 23.5888 11.2402 24.3 9.45 24.3C7.65979 24.3 5.9429 23.5888 4.67703 22.323C3.41116 21.0571 2.7 19.3402 2.7 17.55V9.45C2.7 7.65979 3.41116 5.9429 4.67703 4.67703C5.9429 3.41116 7.65979 2.7 9.45 2.7C11.2402 2.7 12.9571 3.41116 14.223 4.67703C15.4888 5.9429 16.2 7.65979 16.2 9.45V17.55Z" fill="#EDEDF5"/>
</svg>
