<svg width="159" height="58" viewBox="0 0 159 58" fill="none" xmlns="http://www.w3.org/2000/svg">
<g clip-path="url(#clip0_12146_5936)">
<path d="M37.7517 10.8989C35.202 10.952 32.6577 11.855 30.6019 13.3489C28.0522 15.2004 26.3324 18.5186 26.153 21.6081C26.0707 22.8688 26.2155 24.1339 26.5804 25.3437C26.9481 26.5362 27.5997 27.4977 28.3046 28.5113C29.128 29.6983 29.9362 30.8832 30.6976 32.1092C31.7016 33.7277 32.438 35.3071 32.0192 37.228C31.7382 38.5302 31.3429 39.8052 30.8379 41.0384C30.6019 41.6118 30.3745 42.2807 30.0123 42.7859C29.6501 43.291 29.0942 43.742 28.6167 44.1572C26.8023 45.7388 24.3364 47.0841 23.4423 49.4484C23.1159 50.3156 22.9778 51.2283 22.6711 52.0956C22.5514 52.437 22.3708 54.875 22.1076 54.9412L13.1641 57.2177L29.3716 0L37.5178 8.28421C38.4163 9.19805 40.197 11.0431 40.197 11.0431C39.4355 10.9813 38.6578 10.8935 37.8898 10.9011L37.7517 10.8989ZM49.0437 48.0717C48.0256 46.9605 46.8888 45.8938 45.9708 44.7003C45.2953 43.8201 44.3848 42.0043 45.4965 41.0601C45.7989 40.8032 46.2753 40.9387 46.6136 41.0362C48.0277 41.4449 50.0868 42.0737 51.1267 40.6211C51.4618 40.1539 51.626 39.5869 51.737 39.0232C52.0492 37.4372 52.332 35.847 52.6311 34.2534C52.7116 33.8274 52.7943 33.3949 53.0042 33.0155C53.4611 32.1948 54.6358 32.365 55.0057 31.5358C55.074 31.3763 55.1051 31.2035 55.0966 31.0304C55.0881 30.8572 55.0403 30.6883 54.9567 30.5363C54.3965 29.481 53.7743 28.4595 53.0934 27.4771C52.7518 26.9817 52.3885 26.4863 52.2102 25.9128C51.9469 25.0662 52.1133 24.1535 52.2809 23.283L71.124 42.4607L49.1416 48.0521C49.1114 48.0635 49.08 48.0715 49.048 48.076L49.0437 48.0717Z" fill="white"/>
<path d="M53.5809 28.6382L43.6823 29.8946C43.2178 30.841 42.482 31.6289 41.5681 32.1586C40.6542 32.6883 39.6032 32.9361 38.548 32.8705C37.4928 32.8049 36.4809 32.4289 35.6401 31.7901C34.7993 31.1514 34.1675 30.2784 33.8246 29.2818C33.4816 28.2851 33.443 27.2095 33.7134 26.1909C33.9839 25.1724 34.5514 24.2567 35.3442 23.5596C36.1369 22.8624 37.1193 22.4153 38.1671 22.2746C39.2148 22.1339 40.2809 22.306 41.2305 22.7692C41.3871 22.8451 41.5405 22.9296 41.6895 23.0207L52.4823 21.6505C53.2437 21.554 53.942 22.0158 54.0486 22.6803L54.772 27.2582C54.871 27.9238 54.3401 28.5417 53.5809 28.6382Z" fill="white"/>
<path d="M74.6874 26.3762L80.8071 14.3085C80.8149 14.2924 80.8271 14.2788 80.8423 14.2693C80.8574 14.2598 80.875 14.2549 80.8928 14.255H81.0056C81.0236 14.255 81.0412 14.2599 81.0565 14.2694C81.0719 14.2788 81.0843 14.2924 81.0925 14.3085L87.2132 26.3762C87.2207 26.3911 87.2243 26.4076 87.2237 26.4243C87.2231 26.441 87.2182 26.4572 87.2096 26.4715C87.201 26.4857 87.189 26.4975 87.1746 26.5058C87.1602 26.514 87.144 26.5184 87.1275 26.5185H84.8173C84.7992 26.5183 84.7815 26.5131 84.7662 26.5035C84.7509 26.4938 84.7385 26.4801 84.7304 26.4639L83.8359 24.6432C83.8278 24.6269 83.8154 24.6133 83.8 24.6038C83.7847 24.5944 83.767 24.5895 83.749 24.5897H78.1325C78.1143 24.5894 78.0965 24.5945 78.0811 24.6042C78.0657 24.6139 78.0534 24.6277 78.0456 24.6443L77.1669 26.465C77.1589 26.4813 77.1465 26.4952 77.1312 26.5048C77.1158 26.5145 77.0981 26.5196 77.08 26.5196H74.7709C74.7544 26.5192 74.7383 26.5145 74.7241 26.5061C74.7098 26.4976 74.698 26.4857 74.6896 26.4714C74.6813 26.457 74.6767 26.4407 74.6763 26.4241C74.6759 26.4074 74.6797 26.391 74.6874 26.3762ZM79.3575 22.5426H82.5285C82.5447 22.5427 82.5608 22.5386 82.5751 22.5307C82.5893 22.5228 82.6014 22.5113 82.6101 22.4974C82.6188 22.4836 82.6238 22.4677 82.6247 22.4513C82.6256 22.4349 82.6224 22.4185 82.6153 22.4037L81.0361 19.0218C81.0281 19.0052 81.0157 18.9912 81.0003 18.9814C80.9848 18.9716 80.9669 18.9664 80.9486 18.9664C80.9303 18.9664 80.9125 18.9716 80.897 18.9814C80.8815 18.9912 80.8691 19.0052 80.8612 19.0218L79.2684 22.4037C79.2616 22.4187 79.2586 22.4352 79.2597 22.4517C79.2609 22.4681 79.2662 22.484 79.2751 22.4979C79.284 22.5117 79.2962 22.5231 79.3106 22.5309C79.325 22.5387 79.3411 22.5427 79.3575 22.5426Z" fill="white"/>
<path d="M96.1934 16.3182H92.9108C92.8852 16.3185 92.8607 16.3289 92.8426 16.3472C92.8244 16.3655 92.8141 16.3902 92.8138 16.416V26.4207C92.8138 26.4465 92.8037 26.4712 92.7858 26.4895C92.7678 26.5078 92.7435 26.5183 92.7179 26.5186H90.5825C90.5569 26.5183 90.5324 26.5079 90.5143 26.4896C90.4961 26.4713 90.4858 26.4466 90.4855 26.4207V16.416C90.4855 16.3903 90.4755 16.3656 90.4575 16.3472C90.4396 16.3289 90.4152 16.3185 90.3896 16.3182H87.0901C87.0646 16.3182 87.0401 16.3081 87.0219 16.29C87.0038 16.2719 86.9934 16.2472 86.9931 16.2215V14.3382C86.9934 14.3123 87.0037 14.2876 87.0218 14.2693C87.04 14.251 87.0645 14.2407 87.0901 14.2404H96.1934C96.2191 14.2407 96.2436 14.251 96.2617 14.2693C96.2798 14.2876 96.2901 14.3123 96.2904 14.3382V16.2237C96.2895 16.2491 96.2789 16.2731 96.2608 16.2907C96.2427 16.3084 96.2186 16.3182 96.1934 16.3182Z" fill="white"/>
<path d="M107.82 24.5352V26.4207C107.82 26.4467 107.81 26.4716 107.792 26.4899C107.774 26.5083 107.749 26.5186 107.723 26.5186H99.1502C99.1247 26.5183 99.1003 26.5078 99.0824 26.4895C99.0644 26.4712 99.0543 26.4465 99.0543 26.4207V14.3382C99.0543 14.3124 99.0644 14.2877 99.0824 14.2694C99.1003 14.2511 99.1247 14.2407 99.1502 14.2404H101.286C101.311 14.2407 101.336 14.2511 101.354 14.2694C101.371 14.2877 101.382 14.3124 101.382 14.3382V24.3429C101.382 24.3687 101.392 24.3935 101.41 24.4118C101.428 24.43 101.453 24.4404 101.479 24.4407H107.721C107.734 24.4402 107.746 24.4424 107.758 24.4469C107.77 24.4514 107.781 24.4583 107.79 24.467C107.8 24.4758 107.807 24.4863 107.812 24.498C107.817 24.5097 107.82 24.5224 107.82 24.5352Z" fill="white"/>
<path d="M109.295 26.3762L115.415 14.3085C115.424 14.2925 115.436 14.279 115.451 14.2695C115.467 14.2601 115.484 14.2551 115.502 14.255H115.615C115.633 14.2551 115.65 14.2601 115.666 14.2695C115.681 14.279 115.694 14.2925 115.702 14.3085L121.823 26.3762C121.83 26.3912 121.834 26.4078 121.833 26.4246C121.832 26.4413 121.827 26.4576 121.819 26.4719C121.81 26.4862 121.798 26.498 121.783 26.5061C121.769 26.5143 121.752 26.5185 121.736 26.5185H119.427C119.409 26.5183 119.391 26.5131 119.376 26.5035C119.36 26.4938 119.348 26.4801 119.34 26.4639L118.445 24.6432C118.437 24.627 118.425 24.6134 118.409 24.604C118.394 24.5946 118.376 24.5896 118.358 24.5897H112.742C112.724 24.5894 112.706 24.5945 112.69 24.6042C112.675 24.6138 112.663 24.6277 112.655 24.6443L111.776 26.465C111.768 26.4813 111.756 26.4952 111.741 26.5048C111.725 26.5145 111.707 26.5196 111.689 26.5196H109.38C109.364 26.5196 109.347 26.5152 109.333 26.5069C109.318 26.4986 109.306 26.4867 109.297 26.4723C109.289 26.4579 109.284 26.4415 109.283 26.4246C109.283 26.4078 109.287 26.3911 109.295 26.3762ZM113.971 22.5426H117.142C117.159 22.5427 117.175 22.5386 117.189 22.5307C117.203 22.5228 117.215 22.5113 117.224 22.4974C117.233 22.4836 117.238 22.4677 117.239 22.4513C117.24 22.4349 117.236 22.4185 117.229 22.4037L115.65 19.0218C115.642 19.0052 115.63 18.9912 115.614 18.9814C115.599 18.9716 115.581 18.9664 115.562 18.9664C115.544 18.9664 115.526 18.9716 115.511 18.9814C115.495 18.9912 115.483 19.0052 115.475 19.0218L113.882 22.4037C113.875 22.4187 113.872 22.4352 113.874 22.4517C113.875 22.4681 113.88 22.484 113.889 22.4979C113.898 22.5117 113.91 22.5231 113.924 22.5309C113.939 22.5387 113.955 22.5427 113.971 22.5426Z" fill="white"/>
<path d="M123.285 24.8277L124.441 23.1094C124.448 23.0988 124.457 23.0897 124.468 23.0827C124.478 23.0757 124.49 23.0709 124.503 23.0685C124.515 23.0662 124.528 23.0664 124.54 23.0691C124.553 23.0718 124.565 23.077 124.575 23.0843C125.148 23.4801 125.752 23.829 126.38 24.1278C127.016 24.4327 127.712 24.5906 128.417 24.5898C128.755 24.5955 129.092 24.5471 129.415 24.4464C129.678 24.3645 129.925 24.24 130.148 24.0777C130.335 23.9413 130.49 23.7635 130.599 23.5577C130.694 23.3794 130.745 23.1808 130.748 22.9785C130.753 22.7477 130.672 22.5232 130.522 22.3492C130.356 22.1641 130.151 22.0181 129.923 21.9214C129.639 21.7981 129.344 21.7029 129.042 21.6369C128.704 21.5584 128.353 21.4856 127.986 21.4184C127.743 21.3737 127.46 21.3205 127.138 21.2591C126.801 21.1937 126.468 21.1097 126.141 21.0076C125.79 20.8992 125.45 20.7586 125.125 20.5877C124.794 20.4167 124.489 20.1961 124.223 19.9334C123.953 19.6644 123.735 19.3457 123.583 18.9946C123.414 18.5887 123.332 18.1513 123.342 17.7111C123.342 16.9949 123.486 16.3994 123.774 15.9245C124.047 15.4648 124.426 15.0789 124.88 14.8002C125.343 14.5217 125.85 14.3269 126.38 14.2244C126.902 14.1148 127.434 14.0583 127.968 14.056C128.425 14.0518 128.881 14.0853 129.332 14.1561C130.082 14.2766 130.802 14.5416 131.453 14.9367C131.754 15.1188 132.079 15.332 132.428 15.5763C132.439 15.5836 132.448 15.5929 132.455 15.6038C132.462 15.6146 132.467 15.6268 132.469 15.6395C132.471 15.6522 132.471 15.6653 132.468 15.6779C132.465 15.6905 132.46 15.7024 132.452 15.7128L131.267 17.4004C131.252 17.4211 131.23 17.4351 131.205 17.4396C131.18 17.444 131.154 17.4386 131.133 17.4243C130.638 17.0772 130.107 16.7861 129.549 16.5561C129.014 16.3429 128.444 16.2347 127.869 16.2374C127.64 16.2406 127.411 16.2657 127.186 16.3125C126.936 16.3614 126.693 16.4433 126.463 16.5561C126.249 16.6587 126.057 16.8043 125.899 16.9839C125.81 17.0863 125.744 17.2082 125.709 17.3401C125.665 17.5309 125.679 17.7306 125.75 17.9131C125.82 18.0957 125.943 18.2528 126.102 18.3642C126.263 18.4804 126.438 18.576 126.622 18.6487C126.92 18.7663 127.226 18.8614 127.537 18.9332C127.87 19.009 128.191 19.0872 128.502 19.1676C128.734 19.2245 129.009 19.2814 129.325 19.336C129.656 19.3956 129.984 19.4739 130.307 19.5704C130.653 19.6751 130.99 19.8099 131.313 19.9732C131.642 20.1386 131.942 20.3569 132.202 20.6196C132.473 20.8993 132.688 21.2298 132.835 21.5925C133.006 22.0388 133.087 22.515 133.075 22.9933C133.088 23.5647 132.975 24.132 132.743 24.6535C132.528 25.1156 132.202 25.5165 131.794 25.8199C131.353 26.142 130.856 26.3782 130.328 26.5163C129.715 26.6784 129.083 26.7573 128.449 26.7507C127.888 26.7568 127.328 26.7092 126.777 26.6085C126.325 26.5218 125.883 26.3926 125.455 26.2227C125.063 26.0635 124.685 25.8697 124.327 25.6435C123.997 25.4357 123.658 25.2081 123.312 24.9608C123.291 24.9463 123.277 24.9244 123.272 24.8996C123.267 24.8749 123.271 24.8491 123.285 24.8277Z" fill="white"/>
<path d="M85.3608 32.0584C85.3608 32.1681 85.2718 32.257 85.1621 32.257H81.6122C81.5024 32.257 81.4135 32.346 81.4135 32.4557V43.6578C81.4135 43.7676 81.3245 43.8565 81.2148 43.8565H78.9681C78.8583 43.8565 78.7694 43.7676 78.7694 43.6578V32.4557C78.7694 32.346 78.6804 32.257 78.5707 32.257H75.0019C74.8922 32.257 74.8032 32.1681 74.8032 32.0584V30.09C74.8032 29.9803 74.8922 29.8914 75.0019 29.8914H85.1621C85.2718 29.8914 85.3608 29.9803 85.3608 30.09V32.0584Z" fill="white"/>
<path d="M107.11 29.8914C107.248 29.8914 107.344 30.0292 107.296 30.1589L102.287 43.7083C102.258 43.7859 102.184 43.8374 102.101 43.8374V43.8374C102.024 43.8374 101.954 43.7925 101.922 43.7224L98.4147 36.1009C98.3439 35.947 98.1253 35.9467 98.054 36.1004L94.5069 43.7502C94.4769 43.815 94.4119 43.8565 94.3405 43.8565V43.8565C94.2634 43.8565 94.1945 43.8084 94.1681 43.736L89.2102 30.1582C89.1629 30.0286 89.2589 29.8914 89.3968 29.8914H91.7863C91.8705 29.8914 91.9456 29.9445 91.9737 30.0239L94.4644 37.0792C94.5238 37.2476 94.7578 37.2582 94.8323 37.096L98.1051 29.9686C98.1267 29.9215 98.1737 29.8914 98.2255 29.8914V29.8914C98.2773 29.8914 98.3243 29.9216 98.3459 29.9687L101.621 37.118C101.695 37.2798 101.928 37.27 101.988 37.1025L104.534 30.0228C104.562 29.9439 104.637 29.8914 104.721 29.8914H107.11Z" fill="white"/>
<path d="M114.29 43.6578C114.29 43.7676 114.201 43.8565 114.091 43.8565H111.845C111.735 43.8565 111.646 43.7676 111.646 43.6578V30.09C111.646 29.9803 111.735 29.8914 111.845 29.8914H114.091C114.201 29.8914 114.29 29.9803 114.29 30.09V43.6578Z" fill="white"/>
<path d="M131.727 43.8565C131.678 43.8565 131.63 43.838 131.593 43.8046L122.88 35.8498C122.752 35.7334 122.547 35.8239 122.547 35.9966V43.6578C122.547 43.7676 122.458 43.8565 122.348 43.8565H120.121C120.011 43.8565 119.922 43.7676 119.922 43.6578V30.09C119.922 29.9803 120.011 29.8914 120.121 29.8914H120.127C120.177 29.8914 120.226 29.9103 120.262 29.9445L128.956 38.025C129.083 38.1431 129.29 38.053 129.29 37.8795V30.09C129.29 29.9803 129.378 29.8914 129.488 29.8914H131.735C131.845 29.8914 131.934 29.9803 131.934 30.09V43.6578C131.934 43.7676 131.845 43.8565 131.735 43.8565H131.727Z" fill="white"/>
</g>
<defs>
<clipPath id="clip0_12146_5936">
<rect width="159" height="57.0769" fill="white"/>
</clipPath>
</defs>
</svg>
