<svg width="30" height="27" viewBox="0 0 30 27" fill="none" xmlns="http://www.w3.org/2000/svg">
<path d="M28.6289 0.803986L26.1726 2.64578C25.593 3.08052 24.888 3.31552 24.1634 3.31552H18.5409C17.996 3.31574 17.4646 3.48439 17.0193 3.79839C16.574 4.11239 16.2367 4.55637 16.0535 5.06952C15.8704 5.58267 15.8504 6.1399 15.9962 6.66487C16.142 7.18985 16.4466 7.6569 16.8682 8.00205L20.2169 10.7413C21.5139 11.8024 22.5249 13.1712 23.1577 14.7229C23.7906 16.2746 24.0252 17.9599 23.8402 19.6254L23.7632 20.3236C23.6588 21.2611 23.4556 22.1849 23.1571 23.0796L22.7687 24.245M0.16482 8.3386L5.58639 7.43444C6.11229 7.34666 6.65154 7.38571 7.1593 7.54836C7.66706 7.71101 8.12864 7.99255 8.50565 8.36956C8.88266 8.74657 9.1642 9.20815 9.32684 9.71591C9.48949 10.2237 9.52855 10.7629 9.44076 11.2888L9.21472 12.64C9.01932 13.8186 9.20651 15.0289 9.74886 16.0934C10.2912 17.1579 11.1602 18.0208 12.2286 18.5555C13.0819 18.9815 13.7641 19.6861 14.1624 20.5526C14.5606 21.4192 14.651 22.3958 14.4186 23.3207L13.5597 26.7565" stroke="#A3A3A3" stroke-width="2"/>
</svg>
