<svg width="15" height="14" viewBox="0 0 15 14" fill="none" xmlns="http://www.w3.org/2000/svg">
<path d="M7.25702 0C5.33234 0 3.48649 0.737492 2.12553 2.05023C0.764578 3.36298 0 5.14344 0 6.99994C0 8.85643 0.764578 10.6369 2.12553 11.9496C3.48649 13.2624 5.33234 13.9999 7.25702 13.9999C9.1817 13.9999 11.0276 13.2624 12.3885 11.9496C13.7495 10.6369 14.514 8.85643 14.514 6.99994C14.514 5.14344 13.7495 3.36298 12.3885 2.05023C11.0276 0.737492 9.1817 0 7.25702 0ZM7.25702 11.546C6.00664 11.546 4.80748 11.0668 3.92333 10.214C3.03918 9.36118 2.54247 8.2045 2.54247 6.99842C2.54247 5.79234 3.03918 4.63566 3.92333 3.78283C4.80748 2.93 6.00664 2.45089 7.25702 2.45089C8.5074 2.45089 9.70656 2.93 10.5907 3.78283C11.4749 4.63566 11.9716 5.79234 11.9716 6.99842C11.9716 8.2045 11.4749 9.36118 10.5907 10.214C9.70656 11.0668 8.5074 11.546 7.25702 11.546Z" fill="white"/>
</svg>
