<svg width="28" height="28" viewBox="0 0 28 28" fill="none" xmlns="http://www.w3.org/2000/svg">
<path d="M27.2583 4.65832C26.8984 3.76172 26.3483 2.9475 25.6433 2.26776C24.9384 1.58802 24.094 1.05775 23.1644 0.710897C22.0765 0.316989 20.9272 0.103997 19.7654 0.0809881C18.2681 0.0179972 17.7939 0 13.9969 0C10.1999 0 9.71324 -1.50852e-07 8.22834 0.0809881C7.06746 0.10282 5.91899 0.315856 4.83252 0.710897C3.90261 1.05735 3.05805 1.58747 2.35303 2.26726C1.64801 2.94705 1.09809 3.76149 0.73856 4.65832C0.330105 5.70759 0.109796 6.81627 0.0870724 7.93685C0.0202132 9.37964 0 9.83707 0 13.501C0 17.1635 -1.15846e-08 17.6299 0.0870724 19.0652C0.110395 20.1871 0.329631 21.2939 0.73856 22.3453C1.0991 23.2418 1.64955 24.0559 2.35474 24.7356C3.05994 25.4153 3.90436 25.9456 4.83407 26.2927C5.91849 26.7024 7.06744 26.9307 8.23145 26.9676C9.72879 27.0306 10.203 27.0501 14 27.0501C17.797 27.0501 18.2837 27.0501 19.7685 26.9676C20.9302 26.9448 22.0794 26.7323 23.1675 26.3392C24.0969 25.9915 24.941 25.4608 25.6459 24.7809C26.3508 24.1009 26.901 23.2868 27.2614 22.3902C27.6704 21.3404 27.8896 20.2336 27.9129 19.1117C27.9798 17.6689 28 17.2115 28 13.5475C28 9.88356 28 9.41863 27.9129 7.98334C27.8948 6.84691 27.6734 5.72204 27.2583 4.65832ZM25.3645 18.9542C25.3545 19.8186 25.1909 20.6749 24.8809 21.4859C24.6474 22.0691 24.29 22.5987 23.8315 23.0407C23.3731 23.4826 22.8238 23.8271 22.219 24.052C21.3875 24.3496 20.5092 24.5074 19.6224 24.5184C18.1453 24.5844 17.7286 24.6009 13.9409 24.6009C10.1502 24.6009 9.76299 24.6009 8.25788 24.5184C7.3715 24.508 6.49362 24.3502 5.66282 24.052C5.05593 23.8285 4.50445 23.4846 4.04403 23.0426C3.58362 22.6006 3.22453 22.0702 2.99 21.4859C2.68439 20.6836 2.52092 19.8374 2.50644 18.9827C2.43958 17.5579 2.42403 17.156 2.42403 13.5025C2.42403 9.84757 2.42403 9.47412 2.50644 8.02083C2.51649 7.15699 2.68005 6.30121 2.99 5.4907C3.46424 4.30737 4.43603 3.37601 5.66282 2.92308C6.49403 2.62633 7.37165 2.46859 8.25788 2.45664C9.73656 2.39215 10.1517 2.37415 13.9409 2.37415C17.7301 2.37415 18.1188 2.37416 19.6224 2.45664C20.5093 2.46693 21.3877 2.62473 22.219 2.92308C22.8237 3.14845 23.3729 3.4933 23.8314 3.93547C24.2898 4.37765 24.6473 4.90739 24.8809 5.4907C25.1866 6.29301 25.35 7.1392 25.3645 7.99384C25.4314 9.42013 25.4485 9.82057 25.4485 13.4755C25.4485 17.129 25.4485 17.522 25.3816 18.9557H25.3645V18.9542Z" fill="white"/>
</svg>
