<svg width="30" height="21" viewBox="0 0 30 21" fill="none" xmlns="http://www.w3.org/2000/svg">
<path d="M29.3897 3.18519C29.219 2.57418 28.8853 2.01696 28.4219 1.56899C27.9586 1.12101 27.3816 0.797912 26.7486 0.631842C24.4012 0.0101316 15.0104 1.09833e-05 15.0104 1.09833e-05C15.0104 1.09833e-05 5.62103 -0.0101102 3.27219 0.584129C2.63952 0.757842 2.06377 1.08551 1.60022 1.53569C1.13666 1.98586 0.800864 2.54342 0.62506 3.15483C0.00599823 5.41901 2.19616e-06 10.1151 2.19616e-06 10.1151C2.19616e-06 10.1151 -0.00599354 14.8343 0.608572 17.0754C0.953328 18.3144 1.96511 19.2933 3.2512 19.6273C5.62253 20.249 14.9879 20.2591 14.9879 20.2591C14.9879 20.2591 24.3788 20.2692 26.7261 19.6764C27.3594 19.5106 27.9369 19.1883 28.4014 18.7412C28.8659 18.2942 29.2014 17.7379 29.3747 17.1274C29.9953 14.8647 29.9998 10.17 29.9998 10.17C29.9998 10.17 30.0298 5.44938 29.3897 3.18519ZM12.0065 14.4656L12.014 5.79059L19.819 10.1353L12.0065 14.4656Z" fill="white"/>
</svg>
