<svg width="20" height="12" viewBox="0 0 20 12" fill="none" xmlns="http://www.w3.org/2000/svg">
<path d="M18.0379 5.87837L19.0189 4.99542L19.9998 5.87837L19.0189 6.76131L18.0379 5.87837ZM1.38753 7.12722C1.01953 7.12722 0.66661 6.99565 0.406398 6.76144C0.146186 6.52723 0 6.20958 0 5.87837C0 5.54715 0.146186 5.2295 0.406398 4.99529C0.66661 4.76109 1.01953 4.62951 1.38753 4.62951V7.12722ZM13.4687 0L19.0189 4.99542L17.0569 6.76131L11.5068 1.76588L13.4687 0ZM19.0189 6.76131L13.4687 11.7567L11.5068 9.99085L17.0569 4.99542L19.0189 6.76131ZM18.0379 7.12722H1.38753V4.62951H18.0379V7.12722Z" fill="#4FCFE9"/>
</svg>
