<svg width="40" height="40" viewBox="0 0 40 40" fill="none" xmlns="http://www.w3.org/2000/svg">
<path d="M32.5003 10L30.0553 11.8333C29.4783 12.2661 28.7766 12.5 28.0553 12.5H22.4587C21.9163 12.5002 21.3873 12.6681 20.944 12.9806C20.5008 13.2932 20.165 13.7351 19.9827 14.2459C19.8004 14.7567 19.7805 15.3114 19.9257 15.834C20.0708 16.3565 20.374 16.8214 20.7937 17.165L24.127 19.8917C25.418 20.9479 26.4243 22.3104 27.0543 23.8549C27.6842 25.3995 27.9178 27.0771 27.7337 28.735L27.657 29.43C27.553 30.3631 27.3508 31.2827 27.0537 32.1733L26.667 33.3333M4.16699 17.5L9.56366 16.6C10.0871 16.5126 10.6239 16.5515 11.1293 16.7134C11.6348 16.8753 12.0942 17.1555 12.4695 17.5308C12.8448 17.9061 13.125 18.3656 13.2869 18.871C13.4488 19.3764 13.4877 19.9132 13.4003 20.4367L13.1753 21.7817C12.9808 22.9549 13.1671 24.1595 13.707 25.2192C14.2469 26.2788 15.1119 27.1377 16.1753 27.67C17.0247 28.094 17.7038 28.7954 18.1002 29.6579C18.4967 30.5205 18.5867 31.4926 18.3553 32.4133L17.5003 35.8333" stroke="#A3A3A3" stroke-width="2"/>
<path d="M20 35C28.2843 35 35 28.2843 35 20C35 11.7157 28.2843 5 20 5C11.7157 5 5 11.7157 5 20C5 28.2843 11.7157 35 20 35Z" stroke="#A3A3A3" stroke-width="2"/>
</svg>
