<svg width="18" height="18" viewBox="0 0 18 18" fill="none" xmlns="http://www.w3.org/2000/svg">
  <path d="M9 4.378c1.5 0 1.68.006 2.27.033.548.025.845.117 1.042.194.262.101.448.223.645.42.197.197.318.383.42.645.077.197.17.494.194 1.042.027.59.033.77.033 2.27 0 1.5-.006 1.68-.033 2.27-.025.548-.117.845-.194 1.042-.101.262-.223.448-.42.645-.197.197-.383.318-.645.42-.197.077-.494.17-1.042.194-.59.027-.77.033-2.27.033-1.5 0-1.68-.006-2.27-.033-.548-.025-.845-.117-1.042-.194-.262-.101-.448-.223-.645-.42-.197-.197-.318-.383-.42-.645-.077-.197-.17-.494-.194-1.042-.027-.59-.033-.77-.033-2.27 0-1.5.006-1.68.033-2.27.025-.548.117-.845.194-1.042.101-.262.223-.448.42-.645.197-.197.383-.318.645-.42.197-.077.494-.17 1.042-.194.59-.027.77-.033 2.27-.033M9 3c-1.527 0-1.718.006-2.32.034-.598.027-1.006.122-1.363.26a2.76 2.76 0 00-.996.65 2.76 2.76 0 00-.65.996c-.138.357-.233.765-.26 1.363C3.383 6.82 3.377 7.011 3.377 8.538s.006 1.718.034 2.32c.027.598.122 1.006.26 1.363.142.366.332.697.65.996.299.318.63.508.996.65.357.138.765.233 1.363.26.602.028.793.034 2.32.034s1.718-.006 2.32-.034c.598-.027 1.006-.122 1.363-.26.366-.142.697-.332.996-.65.318-.299.508-.63.65-.996.138-.357.233-.765.26-1.363.028-.602.034-.793.034-2.32s-.006-1.718-.034-2.32c-.027-.598-.122-1.006-.26-1.363a2.76 2.76 0 00-.65-.996 2.76 2.76 0 00-.996-.65c-.357-.138-.765-.233-1.363-.26C10.718 3.006 10.527 3 9 3z" fill="#FFFFFF"/>
  <path d="M9 5.892a2.646 2.646 0 100 5.292 2.646 2.646 0 000-5.292zm0 4.362a1.716 1.716 0 110-3.432 1.716 1.716 0 010 3.432z" fill="#FFFFFF"/>
  <circle cx="11.75" cy="5.75" r="0.625" fill="#FFFFFF"/>
</svg> 