<svg width="18" height="18" viewBox="0 0 18 18" fill="none" xmlns="http://www.w3.org/2000/svg">
  <path d="M15.335 15.339H12.67v-4.177c0-0.996-0.02-2.278-1.39-2.278-1.389 0-1.601 1.084-1.601 2.205v4.25H7.014V6.75h2.56v1.17h0.035c0.358-0.674 1.228-1.387 2.528-1.387 2.7 0 3.198 1.778 3.198 4.091v4.715zM4.004 5.575a1.546 1.546 0 01-1.548-1.549 1.548 1.548 0 111.547 1.549zm1.336 9.764H2.667V6.75H5.34v8.589zM16.667 0H1.329C0.593 0 0 0.58 0 1.297v15.406C0 17.42 0.594 18 1.328 18h15.339C17.4 18 18 17.42 18 16.703V1.297C18 0.58 17.4 0 16.667 0z" fill="#FFFFFF"/>
</svg> 